<svg xmlns="http://www.w3.org/2000/svg" xmlns:xlink="http://www.w3.org/1999/xlink" width="338" zoomAndPan="magnify" viewBox="0 0 253.5 42.75" height="57" preserveAspectRatio="xMidYMid meet" version="1.0"><defs><g/><clipPath id="cc3bb262b8"><path d="M 0.488281 2 L 39 2 L 39 40.460938 L 0.488281 40.460938 Z M 0.488281 2 " clip-rule="nonzero"/></clipPath></defs><g clip-path="url(#cc3bb262b8)"><path fill="#5535be" d="M 8.160156 33.542969 L 8.59375 33.972656 L 8.636719 34.015625 C 9.992188 35.417969 9.976562 37.675781 8.59375 39.058594 C 7.210938 40.445312 4.953125 40.457031 3.550781 39.105469 L 3.507812 39.058594 L 3.070312 38.628906 L 1.886719 37.441406 C 0.488281 36.042969 0.488281 33.753906 1.886719 32.351562 C 3.285156 30.957031 5.578125 30.957031 6.976562 32.351562 Z M 32.15625 13.859375 L 37.492188 8.523438 C 38.890625 7.125 38.890625 4.835938 37.492188 3.433594 C 36.089844 2.039062 33.804688 2.039062 32.40625 3.433594 L 27.972656 7.871094 L 27.488281 8.351562 L 24.523438 11.316406 C 23.125 12.714844 23.125 15.003906 24.523438 16.40625 L 27.066406 18.949219 L 27.523438 19.398438 L 32.441406 24.316406 C 33.835938 25.714844 36.125 25.714844 37.527344 24.316406 C 38.925781 22.917969 38.925781 20.625 37.527344 19.230469 Z M 2.089844 3.46875 L 2.089844 3.464844 C 3.488281 2.066406 5.78125 2.066406 7.179688 3.464844 L 37.460938 33.75 C 38.863281 35.148438 38.863281 37.441406 37.460938 38.839844 C 36.0625 40.234375 33.773438 40.234375 32.371094 38.839844 L 2.089844 8.550781 C 0.691406 7.152344 0.691406 4.867188 2.089844 3.46875 Z M 2.046875 17.964844 C 3.445312 16.570312 5.730469 16.570312 7.132812 17.964844 L 22.960938 33.792969 C 24.359375 35.191406 24.359375 37.484375 22.960938 38.882812 C 21.558594 40.277344 19.273438 40.277344 17.875 38.882812 L 12.957031 33.964844 L 5.496094 26.5 L 2.046875 23.054688 C 0.648438 21.65625 0.648438 19.363281 2.046875 17.964844 Z M 2.046875 17.964844 " fill-opacity="1" fill-rule="evenodd"/></g><g fill="#000000" fill-opacity="1"><g transform="translate(47.350997, 30.675155)"><g><path d="M 6.203125 0 L 6.203125 -16.015625 L 0.71875 -16.015625 L 0.71875 -18.78125 L 15.125 -18.78125 L 15.125 -16.015625 L 9.625 -16.015625 L 9.625 0 Z M 6.203125 0 "/></g></g></g><g fill="#000000" fill-opacity="1"><g transform="translate(67.363475, 30.675155)"><g><path d="M 10.625 0.328125 C 8.75 0.328125 7.109375 -0.0820312 5.703125 -0.90625 C 4.296875 -1.726562 3.191406 -2.867188 2.390625 -4.328125 C 1.597656 -5.785156 1.203125 -7.472656 1.203125 -9.390625 C 1.203125 -11.304688 1.597656 -12.992188 2.390625 -14.453125 C 3.191406 -15.910156 4.296875 -17.050781 5.703125 -17.875 C 7.109375 -18.695312 8.75 -19.109375 10.625 -19.109375 C 12.476562 -19.109375 14.113281 -18.695312 15.53125 -17.875 C 16.945312 -17.050781 18.046875 -15.910156 18.828125 -14.453125 C 19.617188 -12.992188 20.015625 -11.304688 20.015625 -9.390625 C 20.015625 -7.472656 19.617188 -5.785156 18.828125 -4.328125 C 18.046875 -2.867188 16.945312 -1.726562 15.53125 -0.90625 C 14.113281 -0.0820312 12.476562 0.328125 10.625 0.328125 Z M 10.625 -2.765625 C 12.414062 -2.765625 13.84375 -3.351562 14.90625 -4.53125 C 15.96875 -5.707031 16.5 -7.328125 16.5 -9.390625 C 16.5 -11.441406 15.96875 -13.054688 14.90625 -14.234375 C 13.84375 -15.421875 12.414062 -16.015625 10.625 -16.015625 C 8.832031 -16.015625 7.398438 -15.421875 6.328125 -14.234375 C 5.253906 -13.054688 4.71875 -11.441406 4.71875 -9.390625 C 4.71875 -7.328125 5.253906 -5.707031 6.328125 -4.53125 C 7.398438 -3.351562 8.832031 -2.765625 10.625 -2.765625 Z M 10.625 -2.765625 "/></g></g></g><g fill="#000000" fill-opacity="1"><g transform="translate(92.740793, 30.675155)"><g><path d="M 1.828125 0 L 1.828125 -18.78125 L 8.765625 -18.78125 C 10.273438 -18.78125 11.519531 -18.53125 12.5 -18.03125 C 13.488281 -17.53125 14.222656 -16.835938 14.703125 -15.953125 C 15.179688 -15.078125 15.421875 -14.097656 15.421875 -13.015625 C 15.421875 -11.972656 15.1875 -11.019531 14.71875 -10.15625 C 14.257812 -9.289062 13.535156 -8.59375 12.546875 -8.0625 C 11.566406 -7.53125 10.304688 -7.265625 8.765625 -7.265625 L 5.265625 -7.265625 L 5.265625 0 Z M 5.265625 -10.0625 L 8.5625 -10.0625 C 9.757812 -10.0625 10.617188 -10.320312 11.140625 -10.84375 C 11.671875 -11.375 11.9375 -12.097656 11.9375 -13.015625 C 11.9375 -13.941406 11.671875 -14.664062 11.140625 -15.1875 C 10.617188 -15.71875 9.757812 -15.984375 8.5625 -15.984375 L 5.265625 -15.984375 Z M 5.265625 -10.0625 "/></g></g></g><g fill="#000000" fill-opacity="1"><g transform="translate(113.192415, 30.675155)"><g><path d="M 10.0625 0.328125 C 8.3125 0.328125 6.769531 -0.078125 5.4375 -0.890625 C 4.113281 -1.710938 3.085938 -2.851562 2.359375 -4.3125 C 1.628906 -5.769531 1.265625 -7.453125 1.265625 -9.359375 C 1.265625 -11.273438 1.632812 -12.96875 2.375 -14.4375 C 3.113281 -15.90625 4.164062 -17.050781 5.53125 -17.875 C 6.90625 -18.695312 8.519531 -19.109375 10.375 -19.109375 C 12.488281 -19.109375 14.25 -18.597656 15.65625 -17.578125 C 17.0625 -16.554688 17.96875 -15.148438 18.375 -13.359375 L 15.78125 -13.359375 C 15.53125 -14.484375 14.929688 -15.375 13.984375 -16.03125 C 13.046875 -16.695312 11.84375 -17.03125 10.375 -17.03125 C 9 -17.03125 7.800781 -16.722656 6.78125 -16.109375 C 5.769531 -15.492188 4.976562 -14.613281 4.40625 -13.46875 C 3.84375 -12.320312 3.5625 -10.953125 3.5625 -9.359375 C 3.5625 -7.765625 3.835938 -6.394531 4.390625 -5.25 C 4.953125 -4.113281 5.722656 -3.234375 6.703125 -2.609375 C 7.691406 -1.992188 8.835938 -1.6875 10.140625 -1.6875 C 12.140625 -1.6875 13.648438 -2.269531 14.671875 -3.4375 C 15.691406 -4.613281 16.273438 -6.222656 16.421875 -8.265625 L 11 -8.265625 L 11 -10.03125 L 18.71875 -10.03125 L 18.71875 0 L 16.65625 0 L 16.46875 -3.078125 C 15.789062 -1.992188 14.957031 -1.15625 13.96875 -0.5625 C 12.988281 0.03125 11.6875 0.328125 10.0625 0.328125 Z M 10.0625 0.328125 "/></g></g></g><g fill="#000000" fill-opacity="1"><g transform="translate(137.657708, 30.675155)"><g><path d="M 1.984375 0 L 1.984375 -18.78125 L 8.046875 -18.78125 C 9.515625 -18.78125 10.710938 -18.535156 11.640625 -18.046875 C 12.566406 -17.566406 13.253906 -16.90625 13.703125 -16.0625 C 14.148438 -15.226562 14.375 -14.300781 14.375 -13.28125 C 14.375 -12.101562 14.054688 -11.039062 13.421875 -10.09375 C 12.785156 -9.144531 11.800781 -8.472656 10.46875 -8.078125 L 14.5625 0 L 11.90625 0 L 8.109375 -7.75 L 4.234375 -7.75 L 4.234375 0 Z M 4.234375 -9.53125 L 7.890625 -9.53125 C 9.335938 -9.53125 10.390625 -9.875 11.046875 -10.5625 C 11.710938 -11.257812 12.046875 -12.15625 12.046875 -13.25 C 12.046875 -14.363281 11.71875 -15.242188 11.0625 -15.890625 C 10.414062 -16.546875 9.347656 -16.875 7.859375 -16.875 L 4.234375 -16.875 Z M 4.234375 -9.53125 "/></g></g></g><g fill="#000000" fill-opacity="1"><g transform="translate(157.723833, 30.675155)"><g><path d="M 10.515625 0.328125 C 8.671875 0.328125 7.054688 -0.078125 5.671875 -0.890625 C 4.285156 -1.710938 3.203125 -2.851562 2.421875 -4.3125 C 1.648438 -5.78125 1.265625 -7.472656 1.265625 -9.390625 C 1.265625 -11.304688 1.648438 -12.992188 2.421875 -14.453125 C 3.203125 -15.910156 4.285156 -17.050781 5.671875 -17.875 C 7.054688 -18.695312 8.671875 -19.109375 10.515625 -19.109375 C 12.378906 -19.109375 14.003906 -18.695312 15.390625 -17.875 C 16.773438 -17.050781 17.847656 -15.910156 18.609375 -14.453125 C 19.378906 -12.992188 19.765625 -11.304688 19.765625 -9.390625 C 19.765625 -7.472656 19.378906 -5.78125 18.609375 -4.3125 C 17.847656 -2.851562 16.773438 -1.710938 15.390625 -0.890625 C 14.003906 -0.078125 12.378906 0.328125 10.515625 0.328125 Z M 10.515625 -1.65625 C 11.890625 -1.65625 13.097656 -1.960938 14.140625 -2.578125 C 15.191406 -3.203125 16.007812 -4.085938 16.59375 -5.234375 C 17.175781 -6.390625 17.46875 -7.773438 17.46875 -9.390625 C 17.46875 -10.992188 17.175781 -12.367188 16.59375 -13.515625 C 16.007812 -14.660156 15.191406 -15.539062 14.140625 -16.15625 C 13.097656 -16.78125 11.890625 -17.09375 10.515625 -17.09375 C 9.140625 -17.09375 7.925781 -16.78125 6.875 -16.15625 C 5.832031 -15.539062 5.019531 -14.660156 4.4375 -13.515625 C 3.851562 -12.367188 3.5625 -10.992188 3.5625 -9.390625 C 3.5625 -7.773438 3.851562 -6.390625 4.4375 -5.234375 C 5.019531 -4.085938 5.832031 -3.203125 6.875 -2.578125 C 7.925781 -1.960938 9.140625 -1.65625 10.515625 -1.65625 Z M 10.515625 -1.65625 "/></g></g></g><g fill="#000000" fill-opacity="1"><g transform="translate(182.913375, 30.675155)"><g><path d="M 5.84375 0.03125 L 0.703125 -18.78125 L 3.109375 -18.78125 L 7.15625 -2.65625 L 11.78125 -18.78125 L 14.265625 -18.78125 L 18.75 -2.65625 L 22.859375 -18.78125 L 25.265625 -18.78125 L 20.015625 0 L 17.4375 0 L 12.953125 -15.5 L 8.375 0 Z M 5.84375 0.03125 "/></g></g></g><g fill="#000000" fill-opacity="1"><g transform="translate(213.011742, 30.675155)"><g><path d="M 6.390625 0 L 6.390625 -16.921875 L 0.78125 -16.921875 L 0.78125 -18.78125 L 14.25 -18.78125 L 14.25 -16.921875 L 8.640625 -16.921875 L 8.640625 0 Z M 6.390625 0 "/></g></g></g><g fill="#000000" fill-opacity="1"><g transform="translate(232.192665, 30.675155)"><g><path d="M 1.984375 0 L 1.984375 -18.78125 L 4.234375 -18.78125 L 4.234375 -10.484375 L 13.984375 -10.484375 L 13.984375 -18.78125 L 16.234375 -18.78125 L 16.234375 0 L 13.984375 0 L 13.984375 -8.640625 L 4.234375 -8.640625 L 4.234375 0 Z M 1.984375 0 "/></g></g></g></svg>